PathFileType	4	(X/Y/Z)	C:\Users\WrightLab\Desktop\Jo\P1.2Trial4.trc
DataRate	CameraRate	NumFrames	NumMarkers	Units	OrigDataRate	OrigDataStartFrame	OrigNumFrames
100.00	100.00	       6	19	mm	100.00	263	       525
Frame#	Time	Headset_Front			Headset_Back			Headset_Left			Headset_Right			Left_Shoulder			Right_Shoulder			Sternum			C7			Left Elbow			Right Elbow			Left Wrist			Right Wrist			Left ASIS			Right ASIS			S2			Left Knee			Right Knee			Left Ankle			Right Ankle			
		X1	Y1	Z1	X2	Y2	Z2	X3	Y3	Z3	X4	Y4	Z4	X5	Y5	Z5	X6	Y6	Z6	X7	Y7	Z7	X8	Y8	Z8	X9	Y9	Z9	X10	Y10	Z10	X11	Y11	Z11	X12	Y12	Z12	X13	Y13	Z13	X14	Y14	Z14	X15	Y15	Z15	X16	Y16	Z16	X17	Y17	Z17	X18	Y18	Z18	X19	Y19	Z19	

263	2.620	-264.66293	1386.00244	608.83856	-401.04721	1514.23035	369.28958	-245.64104	1462.70911	410.21399	-407.25443	1415.74524	571.87579	-188.02356	1249.70056	268.35410	-509.14410	1239.59082	544.27814	-268.27963	1183.33423	496.03864	-424.27457	1302.61389	320.21732	-167.66916	964.87787	189.78421	-588.73242	988.34253	558.44073	-61.11536	753.99298	235.39040	-596.27014	744.32202	657.94910	-174.64893	873.22937	407.88293	-382.23926	859.77972	588.81885	-462.93576	905.35077	277.02026	-94.19511	451.88611	414.63486	-341.38037	466.69165	601.23071	-316.16623	221.56430	195.26216	-343.23651	104.02637	577.05377	
264	2.630	-257.64731	1388.39404	620.21375	-394.35852	1516.95203	378.19147	-239.16034	1465.25000	418.40497	-401.27042	1417.27393	580.06335	-182.87959	1251.81921	276.30490	-502.95123	1242.58630	551.30585	-262.78641	1186.04016	503.67285	-418.73480	1305.33899	328.15768	-161.45470	967.91547	194.85338	-582.48169	991.97394	568.31244	-55.20925	756.41321	241.03204	-584.98822	747.79950	671.09888	-168.64418	874.29303	416.23517	-378.36124	863.30621	597.65704	-457.01657	907.72772	284.71115	-83.05575	460.61670	431.89908	-343.34726	464.92154	606.87677	-295.66397	220.20183	216.08372	-346.63046	102.97224	577.16833	
265	2.640	-252.20705	1389.85974	629.16895	-386.70813	1519.13330	386.58533	-232.33105	1467.59399	428.60260	-395.20016	1418.71252	588.01611	-177.29163	1254.07520	283.67136	-497.88333	1246.18701	560.39215	-256.80991	1188.49072	511.39398	-412.84247	1308.08740	336.42212	-157.12196	969.25800	200.90292	-576.85840	995.26501	577.13251	-49.42369	759.17523	246.00247	-574.96014	751.49634	683.59088	-163.53365	876.45233	425.37216	-374.36584	865.55829	603.94025	-451.13196	909.68866	292.66068	-71.66176	468.92419	447.97324	-345.30692	462.93063	612.78088	-275.00534	218.20366	238.13231	-349.20074	101.22767	576.58545	
266	2.650	-248.80426	1390.68958	635.54974	-380.40982	1521.85144	394.96808	-225.68575	1469.54944	437.77246	-391.00662	1421.13855	596.14362	-171.68678	1256.22131	290.94366	-492.16214	1249.59644	567.36578	-251.16521	1191.58948	519.21100	-406.88376	1310.13806	344.16437	-151.83839	973.45428	206.94135	-571.28870	998.82794	586.75000	-43.88410	761.98145	251.29086	-565.21857	755.53473	695.54028	-158.28522	879.11743	433.96756	-370.29709	868.90283	613.44824	-445.27966	912.05542	300.00839	-61.65849	477.05750	463.81226	-347.92935	460.60489	616.86951	-253.65421	215.68085	260.70160	-351.35370	101.53269	576.70074	
267	2.660	-242.29843	1392.54126	646.34833	-373.30667	1524.21863	403.12253	-219.21236	1470.05908	450.97867	-385.19717	1422.88440	604.00110	-166.59166	1258.64294	298.19080	-485.41827	1251.81030	575.02045	-245.84334	1194.22839	527.59589	-400.94781	1312.61328	352.34845	-147.34361	975.45587	213.19609	-565.96320	1002.24249	596.00958	-38.47936	764.85748	256.04166	-554.62164	759.26031	707.32233	-151.29666	882.52039	442.82150	-364.73135	871.97791	620.35095	-439.02097	913.90186	307.44012	-52.37547	485.74814	481.41174	-349.64899	457.81708	621.43542	-232.52139	210.68044	283.89127	-353.56049	99.75994	575.79486	
268	2.670	-237.70273	1393.84021	655.21515	-366.35086	1526.54565	411.52530	-213.06033	1471.90491	459.74594	-379.16727	1424.38794	611.84882	-161.08409	1261.03564	305.35049	-480.73929	1255.45081	582.95648	-240.08742	1196.82068	535.71460	-395.44427	1314.92188	360.06461	-143.27219	978.39716	219.68329	-560.85156	1005.49097	605.10736	-33.12652	767.49579	262.17599	-545.18140	763.09583	718.95087	-145.46489	885.85297	451.21408	-360.73834	874.63959	628.98560	-433.16766	916.03326	315.11050	-44.50756	494.43420	496.67825	-352.57178	455.72757	624.84943	-211.51945	205.62985	307.05286	-355.08200	99.91574	576.74908	
